<svg width="180" height="180" viewBox="0 0 180 180" fill="none" xmlns="http://www.w3.org/2000/svg">
<rect width="180" height="180" rx="90" fill="#FF6B35"/>
<g filter="url(#filter0_d_54_41)">
<path d="M127.5 34H83.5V52H105.5V115C103.753 123.015 101.6 125.956 95.5 128H86.5C79.7672 124.558 77.1428 121.096 75 112L52 115C57.9159 134.159 63.8249 142.333 81 145H100.5C119.07 139.429 125.288 132.082 127.5 115.5V34Z" fill="black" shape-rendering="crispEdges"/>
<path d="M128 33.5V115.533L127.996 115.566C126.884 123.904 124.754 130.001 120.506 134.714C116.263 139.42 109.962 142.683 100.644 145.479L100.573 145.5H80.9609L80.9229 145.494C72.2625 144.149 66.3725 141.403 61.9092 136.522C57.4658 131.664 54.4835 124.737 51.5225 115.147L51.3477 114.581L51.9355 114.504L74.9355 111.504L75.3828 111.445L75.4863 111.886C76.5522 116.41 77.7258 119.473 79.4336 121.826C81.1174 124.146 83.3516 125.816 86.623 127.5H95.417C98.3703 126.502 100.31 125.305 101.734 123.437C103.178 121.543 104.133 118.908 105 114.945V52.5H83V33.5H128Z" stroke="white" stroke-opacity="0.5" shape-rendering="crispEdges"/>
</g>
<defs>
<filter id="filter0_d_54_41" x="38.6948" y="33" width="89.8052" height="125" filterUnits="userSpaceOnUse" color-interpolation-filters="sRGB">
<feFlood flood-opacity="0" result="BackgroundImageFix"/>
<feColorMatrix in="SourceAlpha" type="matrix" values="0 0 0 0 0 0 0 0 0 0 0 0 0 0 0 0 0 0 127 0" result="hardAlpha"/>
<feOffset dx="-8" dy="8"/>
<feGaussianBlur stdDeviation="2"/>
<feComposite in2="hardAlpha" operator="out"/>
<feColorMatrix type="matrix" values="0 0 0 0 0 0 0 0 0 0 0 0 0 0 0 0 0 0 0.3 0"/>
<feBlend mode="normal" in2="BackgroundImageFix" result="effect1_dropShadow_54_41"/>
<feBlend mode="normal" in="SourceGraphic" in2="effect1_dropShadow_54_41" result="shape"/>
</filter>
</defs>
</svg>
