<svg width="182" height="183" viewBox="0 0 182 183" fill="none" xmlns="http://www.w3.org/2000/svg">
<path fill-rule="evenodd" clip-rule="evenodd" d="M79.8522 0.177467C118.048 -1.80753 147.881 12.8595 169.352 44.1775C183.804 70.8855 185.804 98.5525 175.352 127.177C161.015 157.852 137.182 176.019 103.852 181.677C58.2572 185.805 25.7572 167.305 6.3522 126.177C-8.8818 79.5495 3.2852 42.0495 42.8522 13.6775C54.5522 7.05847 66.8862 2.55847 79.8522 0.177467Z" fill="#E5A148"/>
<path fill-rule="evenodd" clip-rule="evenodd" d="M98.8523 26.1774C109.857 26.0104 120.857 26.1774 131.852 26.6774C132.352 27.1774 132.852 27.6774 133.352 28.1774C134.019 34.5104 134.019 40.8444 133.352 47.1774C132.978 48.0934 132.478 48.9274 131.852 49.6774C130.251 49.9504 128.751 50.4504 127.352 51.1774C127.019 74.1774 126.685 97.1774 126.352 120.177C124.615 132.913 117.448 140.413 104.852 142.677C97.1853 143.344 89.5193 143.344 81.8523 142.677C71.2353 140.393 65.0683 133.893 63.3523 123.177C62.6853 113.51 62.6853 103.844 63.3523 94.1774C66.4163 92.8944 69.7493 92.2274 73.3523 92.1774C76.5193 92.3444 79.6853 92.5104 82.8523 92.6774C83.3523 93.1774 83.8523 93.6774 84.3523 94.1774C84.6853 101.177 85.0193 108.177 85.3523 115.177C86.4143 116.576 87.7473 117.576 89.3523 118.177C93.2883 115.912 96.9553 113.245 100.352 110.177C101.019 110.844 101.019 111.51 100.352 112.177C98.1183 114.377 95.6183 116.21 92.8523 117.677C95.8493 118.432 98.3493 117.599 100.352 115.177C100.669 116.978 101.336 117.311 102.352 116.177C103.498 105.104 103.998 93.9374 103.852 82.6774C103.519 72.1774 103.185 61.6774 102.852 51.1774C100.237 50.8214 98.4043 49.4884 97.3523 47.1774C96.6853 40.8444 96.6853 34.5104 97.3523 28.1774C98.0693 27.6334 98.5693 26.9664 98.8523 26.1774Z" fill="#27241E"/>
<path fill-rule="evenodd" clip-rule="evenodd" d="M85.8521 39.1776C86.9041 39.0286 87.9041 39.1946 88.8521 39.6776C86.7111 40.9856 84.7111 42.4856 82.8521 44.1776C82.5191 43.8446 82.1851 43.5106 81.8521 43.1776C83.5401 42.1566 84.8731 40.8226 85.8521 39.1776Z" fill="#2D2D2D"/>
<path fill-rule="evenodd" clip-rule="evenodd" d="M92.8518 39.1775C94.1258 39.8665 94.1258 40.7005 92.8518 41.6775C89.2638 44.0545 85.7638 46.5545 82.3518 49.1775C81.7348 48.2285 81.9008 47.3955 82.8518 46.6775C86.4318 44.4005 89.7658 41.9005 92.8518 39.1775Z" fill="#252525"/>
<path fill-rule="evenodd" clip-rule="evenodd" d="M91.8523 44.1775C92.5913 44.0465 93.2583 44.2135 93.8523 44.6775C90.3523 47.5105 86.8523 50.3445 83.3523 53.1775C82.6853 52.5105 82.6853 51.8445 83.3523 51.1775C86.3753 48.9795 89.2083 46.6465 91.8523 44.1775Z" fill="#292929"/>
<path fill-rule="evenodd" clip-rule="evenodd" d="M92.8521 48.1775C93.3951 48.2375 93.7281 48.5705 93.8521 49.1775C93.0391 50.4915 92.0391 51.6585 90.8521 52.6775C88.5611 55.0175 85.8941 56.3505 82.8521 56.6775C86.3771 53.9795 89.7101 51.1465 92.8521 48.1775Z" fill="#282828"/>
<path fill-rule="evenodd" clip-rule="evenodd" d="M93.8521 52.1775C95.6891 52.3165 96.0221 52.9835 94.8521 54.1775C91.1341 57.4495 87.1341 59.9495 82.8521 61.6775C86.7111 58.6455 90.3781 55.4795 93.8521 52.1775Z" fill="#252525"/>
<path fill-rule="evenodd" clip-rule="evenodd" d="M97.8521 54.1776C98.9041 54.0286 99.9041 54.1946 100.852 54.6776C97.0081 57.0996 93.3421 59.7666 89.8521 62.6776C89.1851 63.3446 88.5191 63.3446 87.8521 62.6776C91.3771 59.9796 94.7101 57.1466 97.8521 54.1776Z" fill="#272727"/>
<path fill-rule="evenodd" clip-rule="evenodd" d="M98.8523 58.1774C99.7283 58.0464 100.395 58.3794 100.852 59.1774C96.9283 62.0564 93.0953 65.0564 89.3523 68.1774C88.6853 67.5104 88.6853 66.8444 89.3523 66.1774C92.7103 63.6464 95.8763 60.9794 98.8523 58.1774Z" fill="#2B2B2B"/>
<path fill-rule="evenodd" clip-rule="evenodd" d="M99.8523 62.1775C100.877 62.5745 101.044 63.2405 100.352 64.1775C96.6853 67.1775 93.0193 70.1775 89.3523 73.1775C88.6853 72.5105 88.6853 71.8445 89.3523 71.1775C93.0443 68.3125 96.5443 65.3125 99.8523 62.1775Z" fill="#272727"/>
<path fill-rule="evenodd" clip-rule="evenodd" d="M99.8518 72.1775C100.997 73.4705 100.663 74.6365 98.8518 75.6775C95.4248 77.4735 92.2578 79.6405 89.3518 82.1775C88.7348 81.2285 88.9008 80.3955 89.8518 79.6775C93.4318 77.4005 96.7658 74.9005 99.8518 72.1775Z" fill="#272727"/>
<path fill-rule="evenodd" clip-rule="evenodd" d="M99.8521 67.1775C100.997 68.4705 100.663 69.6365 98.8521 70.6775C96.1851 72.6775 93.5191 74.6775 90.8521 76.6775C90.0201 77.3655 89.3541 77.1985 88.8521 76.1775C92.7731 73.3975 96.4391 70.3975 99.8521 67.1775Z" fill="#222222"/>
<path fill-rule="evenodd" clip-rule="evenodd" d="M99.8521 77.1775C101.126 77.8665 101.126 78.7005 99.8521 79.6775C96.2641 82.0545 92.7641 84.5545 89.3521 87.1775C88.8451 85.6815 89.3451 84.5145 90.8521 83.6775C94.2731 81.9785 97.2731 79.8125 99.8521 77.1775Z" fill="#292929"/>
<path fill-rule="evenodd" clip-rule="evenodd" d="M98.8523 82.1774C99.7283 82.0464 100.395 82.3794 100.852 83.1774C96.9283 86.0564 93.0953 89.0564 89.3523 92.1774C88.6853 91.5104 88.6853 90.8444 89.3523 90.1774C92.7103 87.6464 95.8763 84.9794 98.8523 82.1774Z" fill="#272727"/>
<path fill-rule="evenodd" clip-rule="evenodd" d="M99.8523 86.1775C100.877 86.5745 101.044 87.2405 100.352 88.1775C96.6853 91.1775 93.0193 94.1775 89.3523 97.1775C88.6033 96.0425 88.7693 95.0425 89.8523 94.1775C93.5173 91.8365 96.8513 89.1705 99.8523 86.1775Z" fill="#2C2C2C"/>
<path fill-rule="evenodd" clip-rule="evenodd" d="M99.8521 91.1775C100.395 91.2375 100.728 91.5705 100.852 92.1775C97.7451 95.2375 94.4111 98.0715 90.8521 100.677C90.0201 101.365 89.3541 101.198 88.8521 100.177C92.7731 97.3975 96.4391 94.3975 99.8521 91.1775Z" fill="#282828"/>
<path fill-rule="evenodd" clip-rule="evenodd" d="M99.8518 96.1775C101.126 96.8665 101.126 97.7005 99.8518 98.6775C96.2638 101.054 92.7638 103.554 89.3518 106.177C88.7348 105.228 88.9008 104.395 89.8518 103.677C93.6518 101.698 96.9858 99.1985 99.8518 96.1775Z" fill="#282828"/>
<path fill-rule="evenodd" clip-rule="evenodd" d="M99.8521 101.177C101.126 101.866 101.126 102.7 99.8521 103.677C96.2641 106.054 92.7641 108.554 89.3521 111.177C88.8451 109.681 89.3451 108.514 90.8521 107.677C93.9191 105.489 96.9191 103.322 99.8521 101.177Z" fill="#2C2C2C"/>
<path fill-rule="evenodd" clip-rule="evenodd" d="M48.8519 105.177C52.4539 105.355 52.4539 106.355 48.8519 108.177C48.2649 107.444 48.2649 106.444 48.8519 105.177Z" fill="#525252"/>
<path fill-rule="evenodd" clip-rule="evenodd" d="M57.8523 108.177C58.5913 108.046 59.2583 108.213 59.8523 108.677C56.1113 111.963 52.2773 115.13 48.3523 118.177C47.6853 117.51 47.6853 116.844 48.3523 116.177C51.7103 113.646 54.8763 110.979 57.8523 108.177Z" fill="#292929"/>
<path fill-rule="evenodd" clip-rule="evenodd" d="M55.8523 105.177C56.5913 105.046 57.2583 105.213 57.8523 105.677C54.7763 108.297 51.6103 110.797 48.3523 113.177C47.6853 112.51 47.6853 111.844 48.3523 111.177C51.0403 109.313 53.5403 107.313 55.8523 105.177Z" fill="#242424"/>
<path fill-rule="evenodd" clip-rule="evenodd" d="M98.8523 106.177C99.7283 106.046 100.395 106.379 100.852 107.177C96.9283 110.056 93.0953 113.056 89.3523 116.177C88.6853 115.51 88.6853 114.844 89.3523 114.177C92.7103 111.646 95.8763 108.979 98.8523 106.177Z" fill="#2B2B2B"/>
<path fill-rule="evenodd" clip-rule="evenodd" d="M58.8523 112.177C59.8773 112.574 60.0443 113.24 59.3523 114.177C55.6853 117.177 52.0193 120.177 48.3523 123.177C47.6853 122.51 47.6853 121.844 48.3523 121.177C52.0443 118.312 55.5443 115.312 58.8523 112.177Z" fill="#2B2B2B"/>
<path fill-rule="evenodd" clip-rule="evenodd" d="M58.8521 117.177C59.9971 118.47 59.6631 119.636 57.8521 120.677C55.1851 122.677 52.5191 124.677 49.8521 126.677C49.0201 127.365 48.3541 127.198 47.8521 126.177C51.7731 123.397 55.4391 120.397 58.8521 117.177Z" fill="#222222"/>
<path fill-rule="evenodd" clip-rule="evenodd" d="M58.8518 122.177C60.1258 122.866 60.1258 123.7 58.8518 124.677C55.2638 127.054 51.7638 129.554 48.3518 132.177C47.7348 131.228 47.9008 130.395 48.8518 129.677C52.4318 127.4 55.7658 124.9 58.8518 122.177Z" fill="#272727"/>
<path fill-rule="evenodd" clip-rule="evenodd" d="M59.8518 126.177C61.1258 126.866 61.1258 127.7 59.8518 128.677C56.2638 131.054 52.7638 133.554 49.3518 136.177C48.7348 135.228 48.9008 134.395 49.8518 133.677C53.4318 131.4 56.7658 128.9 59.8518 126.177Z" fill="#272727"/>
<path fill-rule="evenodd" clip-rule="evenodd" d="M60.8518 130.177C62.1258 130.866 62.1258 131.7 60.8518 132.677C57.2638 135.054 53.7638 137.554 50.3518 140.177C49.7348 139.228 49.9008 138.395 50.8518 137.677C54.4318 135.4 57.7658 132.9 60.8518 130.177Z" fill="#2A2A2A"/>
<path fill-rule="evenodd" clip-rule="evenodd" d="M61.8521 134.177C62.9971 135.47 62.6631 136.636 60.8521 137.677C58.1851 139.677 55.5191 141.677 52.8521 143.677C52.0201 144.365 51.3541 144.198 50.8521 143.177C54.7731 140.397 58.4391 137.397 61.8521 134.177Z" fill="#272727"/>
<path fill-rule="evenodd" clip-rule="evenodd" d="M63.8521 137.177C64.3951 137.237 64.7281 137.57 64.8521 138.177C61.7451 141.237 58.4111 144.071 54.8521 146.677C54.0201 147.365 53.3541 147.198 52.8521 146.177C56.8531 143.502 60.5201 140.502 63.8521 137.177Z" fill="#2A2A2A"/>
<path fill-rule="evenodd" clip-rule="evenodd" d="M66.8518 140.177C68.1258 140.866 68.1258 141.7 66.8518 142.677C63.2638 145.054 59.7638 147.554 56.3518 150.177C55.7348 149.228 55.9008 148.395 56.8518 147.677C60.4318 145.4 63.7658 142.9 66.8518 140.177Z" fill="#202020"/>
<path fill-rule="evenodd" clip-rule="evenodd" d="M72.8521 145.178C73.9041 145.029 74.9041 145.195 75.8521 145.678C72.0081 148.1 68.3421 150.767 64.8521 153.678C63.8521 154.345 62.8521 154.345 61.8521 153.678C65.5871 150.825 69.2541 147.991 72.8521 145.178Z" fill="#2B2B2B"/>
<path fill-rule="evenodd" clip-rule="evenodd" d="M104.852 145.177C105.591 145.046 106.258 145.213 106.852 145.677C102.851 150.068 98.1841 153.068 92.8521 154.677C97.1031 151.732 101.103 148.565 104.852 145.177Z" fill="#232323"/>
<path fill-rule="evenodd" clip-rule="evenodd" d="M69.8521 142.177C71.5851 142.685 71.9181 143.518 70.8521 144.677C68.1851 146.677 65.5191 148.677 62.8521 150.677C61.5931 151.659 60.2601 151.992 58.8521 151.677C62.7111 148.645 66.3781 145.479 69.8521 142.177Z" fill="#2B2B2B"/>
<path fill-rule="evenodd" clip-rule="evenodd" d="M77.8521 146.177C78.5911 146.046 79.2581 146.213 79.8521 146.677C76.1731 150.746 71.8401 153.412 66.8521 154.677C70.9491 152.307 74.6161 149.474 77.8521 146.177Z" fill="#282828"/>
<path fill-rule="evenodd" clip-rule="evenodd" d="M95.8521 147.177C96.5911 147.046 97.2581 147.213 97.8521 147.677C94.1731 151.746 89.8401 154.412 84.8521 155.677C88.5871 152.824 92.2541 149.99 95.8521 147.177Z" fill="#272727"/>
<path fill-rule="evenodd" clip-rule="evenodd" d="M88.8521 147.178C92.3511 146.937 92.6841 147.77 89.8521 149.678C87.1851 151.678 84.5191 153.678 81.8521 155.678C80.8521 156.345 79.8521 156.345 78.8521 155.678C82.3771 152.98 85.7101 150.147 88.8521 147.178Z" fill="#2A2A2A"/>
<path fill-rule="evenodd" clip-rule="evenodd" d="M83.8521 146.178C84.9041 146.029 85.9041 146.195 86.8521 146.678C82.8521 149.678 78.8521 152.678 74.8521 155.678C73.8521 156.345 72.8521 156.345 71.8521 155.678C76.3271 153.028 80.3271 149.861 83.8521 146.178Z" fill="#262626"/>
</svg>
